<mxfile host="app.diagrams.net" modified="2020-12-13T16:14:29.544Z" agent="5.0 (X11)" etag="4jgE-m7QY-f5XtHFIUSx" version="14.0.1" type="github">
  <diagram id="pQNeEdPDle5iqBmCIra-" name="Page-1">
    <mxGraphModel dx="1990" dy="804" grid="1" gridSize="10" guides="1" tooltips="1" connect="1" arrows="1" fold="1" page="1" pageScale="1" pageWidth="850" pageHeight="1100" math="0" shadow="0">
      <root>
        <mxCell id="0" />
        <mxCell id="1" parent="0" />
        <mxCell id="pg3aJAz9RqnfhDuoy9GE-8" value="" style="rounded=0;whiteSpace=wrap;html=1;" vertex="1" parent="1">
          <mxGeometry x="110" y="150" width="120" height="60" as="geometry" />
        </mxCell>
        <mxCell id="pg3aJAz9RqnfhDuoy9GE-5" style="edgeStyle=orthogonalEdgeStyle;rounded=0;orthogonalLoop=1;jettySize=auto;html=1;entryX=0;entryY=0.5;entryDx=0;entryDy=0;" edge="1" parent="1" source="pg3aJAz9RqnfhDuoy9GE-1" target="pg3aJAz9RqnfhDuoy9GE-2">
          <mxGeometry relative="1" as="geometry">
            <mxPoint x="240" y="170" as="targetPoint" />
          </mxGeometry>
        </mxCell>
        <mxCell id="pg3aJAz9RqnfhDuoy9GE-1" value="Start API Development" style="rounded=0;whiteSpace=wrap;html=1;direction=east;" vertex="1" parent="1">
          <mxGeometry x="100" y="140" width="120" height="60" as="geometry" />
        </mxCell>
        <mxCell id="pg3aJAz9RqnfhDuoy9GE-6" style="edgeStyle=orthogonalEdgeStyle;rounded=0;orthogonalLoop=1;jettySize=auto;html=1;exitX=1;exitY=0.5;exitDx=0;exitDy=0;" edge="1" parent="1" source="pg3aJAz9RqnfhDuoy9GE-2" target="pg3aJAz9RqnfhDuoy9GE-3">
          <mxGeometry relative="1" as="geometry" />
        </mxCell>
        <mxCell id="pg3aJAz9RqnfhDuoy9GE-2" value="Design Swagger documentation" style="rounded=0;whiteSpace=wrap;html=1;" vertex="1" parent="1">
          <mxGeometry x="264" y="140" width="120" height="60" as="geometry" />
        </mxCell>
        <mxCell id="pg3aJAz9RqnfhDuoy9GE-7" style="edgeStyle=orthogonalEdgeStyle;rounded=0;orthogonalLoop=1;jettySize=auto;html=1;exitX=1;exitY=0.5;exitDx=0;exitDy=0;entryX=0;entryY=0.5;entryDx=0;entryDy=0;" edge="1" parent="1" source="pg3aJAz9RqnfhDuoy9GE-3" target="pg3aJAz9RqnfhDuoy9GE-4">
          <mxGeometry relative="1" as="geometry" />
        </mxCell>
        <mxCell id="pg3aJAz9RqnfhDuoy9GE-3" value="Prepare API Unit Testing" style="rounded=0;whiteSpace=wrap;html=1;" vertex="1" parent="1">
          <mxGeometry x="420" y="140" width="120" height="60" as="geometry" />
        </mxCell>
        <mxCell id="pg3aJAz9RqnfhDuoy9GE-10" value="" style="edgeStyle=orthogonalEdgeStyle;rounded=0;orthogonalLoop=1;jettySize=auto;html=1;" edge="1" parent="1" source="pg3aJAz9RqnfhDuoy9GE-4" target="pg3aJAz9RqnfhDuoy9GE-9">
          <mxGeometry relative="1" as="geometry" />
        </mxCell>
        <mxCell id="pg3aJAz9RqnfhDuoy9GE-4" value="Develop UI Required for Designers" style="rounded=0;whiteSpace=wrap;html=1;" vertex="1" parent="1">
          <mxGeometry x="570" y="140" width="120" height="60" as="geometry" />
        </mxCell>
        <mxCell id="pg3aJAz9RqnfhDuoy9GE-9" value="&lt;div&gt;Complete work flow for api&lt;br&gt;&lt;/div&gt;" style="whiteSpace=wrap;html=1;rounded=0;" vertex="1" parent="1">
          <mxGeometry x="570" y="280" width="120" height="60" as="geometry" />
        </mxCell>
      </root>
    </mxGraphModel>
  </diagram>
</mxfile>
